<svg width="1012.62" height="546.8" xmlns="http://www.w3.org/2000/svg"><path style="fill:#01c3f6;fill-opacity:1;stroke-width:1.28398" d="M508.61 0c-14.714-.01-28.648.9-41.802 2.73-13.627 1.644-26.37 4.015-38.225 7.114-23.894 6.24-47.274 16.846-66.906 32.408-32.947 27.644-51.039 69.206-53.324 112.193-2.8 52.695 11.328 99.816 42.383 141.366 4.45 5.94 9.913 12.439 16.384 19.492 17.886 19.49 37.658 38.532 60.86 51.09 15.831 8.564 36.825 10.797 52.387.64 15.947-10.374 23.716-28.08 25.513-46.646 1.507-15.494 1.015-31.893-1.476-49.201-2.14-14.869-5.3-31.173-9.477-48.909-5.598-23.779-9.29-44.021-11.08-60.73-1.887-24.832-1.002-50.59 7.742-74.01 5.098-13.636 15.01-28.748 28.852-34.32.787-.317 1.4-.107 1.836.629.402.667.5 1.78.295 3.338.051 7.395.06 15.229.025 23.498-.137 29.762 3.368 58.292 10.516 85.59 9.077 34.641 19.631 69.899 24.164 105.08 4.43 34.295 2.081 70.888-9.59 103.642-.608 5.23-2.479 10.258-5.611 15.086a23.284 23.284 0 0 0-1.811 3.34c-.488 1.087-1.118 2.29-1.889 3.607a21.887 21.887 0 0 0-1.502 3.094 112.167 112.167 0 0 0-1.283 3.403c-.462 1.266-1.062 2.34-1.799 3.222-2.336 2.825-3.607 5.945-5.867 8.77-6.231 7.772-14.11 15.699-23.637 23.779-14.984 12.711-33.218 21.996-51.167 29.314-6.874 2.808-15.464 5.77-25.77 8.885-24.926 7.55-48.807 12.048-71.645 13.494-10.69.685-24.85.984-42.474.899l-35.426 54.351a.27.27 0 0 0 .232.424l257.051.115c.497 0 .771-.247.823-.744 1.81-18.489 5.855-38.007 11.98-55.174 3.09-8.662 6.77-16.548 11.041-23.662 22.842-38.082 57.137-66.459 99.482-80.441 7.242-2.397 15.554-4.602 24.936-6.613 13.405-2.868 26.77-5.718 40.098-8.551 17.115-3.647 34.489-9.579 50.923-17.938a156.839 156.839 0 0 0 25.282-16.293c24.66-19.61 42.396-44.181 53.207-73.712a220.086 220.086 0 0 0 10.273-38.508.783.77 11.3 0 0-.592-.873c-24.074-5.419-72.992-23.972-59.652-58.46 1.81-4.686 5.956-7.69 9.05-11.464a.886.873 20.4 0 0-.667-1.44c-31.522-.834-63.222-.397-94.705-.295-3.98.013-5.406-3.647-6.96-6.613-9.543-18.267-20.347-36.703-32.407-55.312-14.869-22.958-32.125-44.517-53.94-60.143-14.509-10.374-30.07-17.82-46.685-22.34-16.555-4.494-34.219-7.123-52.99-7.885A372.672 372.672 0 0 0 508.61 0zM359.03 47.656a50.647 50.647 0 0 1 0 0zm-8.64 28.391c.173.661.588 1.38 1.121 1.986.533.607 1.184 1.1 1.832 1.313-.648-.212-1.299-.706-1.832-1.313-.533-.606-.948-1.325-1.121-1.986zm5.098 7.06zm18.912 21.995zm1.785 16.23c.026.325.202.53.527.615-.325-.085-.501-.29-.527-.615zm42.576 35.631c.381 1.083.898 1.997 1.55 2.744-.652-.747-1.169-1.661-1.55-2.744zm119.686 3.191c.117.894.193 1.796-.057 2.778.25-.983.174-1.884.057-2.778zm-112.34 3.909a4.845 4.845 0 0 0 1.941 1.087c.709.2 1.479.234 2.309.106-.83.128-1.6.093-2.309-.106a4.845 4.845 0 0 1-1.941-1.087zm8.68 4.404zm19.646 1.29c.165.172.258.407.28.712-.022-.304-.115-.54-.28-.711zm6.367 4.487c.017.291-.108.484-.373.578.265-.094.39-.287.373-.578zm22.635.682zm-21.191.803a.924.924 0 0 0 .853.312c.544-.09 1.044-.041 1.5.143-.456-.184-.956-.23-1.5-.141a.924.924 0 0 1-.853-.314zm4.873 2.416c.466.186.972.226 1.515.119-.543.107-1.049.067-1.515-.12zm74.496.863zm63.697 64.842c-.026.368-.217.589-.576.666.36-.077.55-.298.576-.666zm36.424 34.73c.494.347.838.866 1.031 1.555-.193-.69-.537-1.208-1.031-1.555zm26.967 21.16zm44.271 33.99c.616.358 1.092.897 1.426 1.616-.334-.72-.81-1.258-1.426-1.615z"/><path fill="#042549" d="M589.71 140.964c5.38-11.928 17.167-21.366 30.444-21.892 13.97-.565 27.374 7.575 33.948 19.427q7.087 12.75 6.253 27.284-.167 2.8-2.722 3.788c-23.471 9.065-46.994 10.49-71.248 1.258a1.58 1.592 7.3 0 1-1.014-1.322q-1.516-15.562 4.34-28.543z" style="stroke-width:1.28398"/><path fill="#fbfbfb" d="M808.205 161.276c5.996-5.546 16.653-7.704 24.665-8.474q19.837-1.926 35.72 2.915 4.635 1.4 6.471 3.967c4.263 5.945-7.819 8.757-11.607 9.22-18.13 2.233-37.376-.81-54.967-6.344a.758.758 0 0 1-.282-1.284z" style="stroke-width:1.28398"/><path fill="#008bc2" d="M254.58 300.151q-13.623-25.782-21.995-52.964c-.32-1.014-1.066-2.247-1.592-3.21q-.347-.642.244-1.078.59-.437.95-1.169l40.06-.346a1.168 1.181 85.7 0 1 1.181 1.014q4.225 29.108 11.8 57.24.193.68-.513.667z" style="stroke-width:1.28398"/><path fill="#01c3f6" d="M996.372 246.237c25.795 13.816 15.844 53.465-12.866 53.632q-41.28.244-81.468.064a.68.693 7.9 0 1-.655-.873c5.187-18.772 7.37-37.338 7.01-56.418q-.025-.886.86-.873 31.535.192 63.404.013c7.6-.052 16.897.809 23.715 4.455z" style="fill:#01c3f6;fill-opacity:1;stroke-width:1.28398"/><path fill="#019ed6" d="M232.187 241.73q-.36.732-.95 1.169-.59.436-.244 1.078c.526.963 1.271 2.196 1.592 3.21q8.372 27.182 21.995 52.964l-219.175.077c-4.558-.205-9.437-.013-13.572-.937Q4.358 295.336.648 278.671c-1.182-5.303-.745-12.237 1.296-17.501q6.459-16.653 25.423-18.888zM75.837 366.122l177.741.167q9 8.77 16.063 17.809 13.982 17.885 26.989 36.516a1.746 1.798 83.1 0 0 .86.655l1.567.59q-.283 1.682-1.772 1.67-59.153-.116-188.475.051-61.94-.193-80.21-.116C12.216 423.53.07 412.101.25 395.512c.205-17.808 13.61-29.069 31.277-29.236q22.136-.218 44.31-.154z" style="fill:#01c3f6;fill-opacity:1;stroke-width:1.28398"/><path fill="#008bc2" d="m299.057 421.86-1.567-.591a1.746 1.798 83.1 0 1-.86-.655q-13.007-18.63-26.99-36.516-7.061-9.04-16.062-17.81l80.724-.025a.758.758 0 0 1 .642 1.169z" style="stroke-width:1.28398"/><path fill="#01c3f6" d="M788.136 423.503q-10.439-.347-17.654.051-6.395.36-.398-1.874c18.861-6.998 37.928-14.15 55.994-23.523q23.098-11.504 40.586-30.225a3.685 3.672 20.5 0 1 2.568-1.168q12.891-.462 24.974-.321 38.39.462 77.693.064 15.613-.154 21.558 2.003c13.88 5.02 22.11 19.8 18.181 34.231-2.658 9.72-11.235 19.427-21.969 20.274q-6.06.488-12.198.488-94.667-.039-189.335 0z" style="fill:#01c3f6;fill-opacity:1;stroke-width:1.28398"/><path fill="#008bc2" d="M547.686 374.994q-.912 7.845-5.611 15.087-1.04 1.592-1.81 3.338-.732 1.631-1.888 3.608-.886 1.515-1.502 3.095-.642 1.618-1.284 3.402-.694 1.9-1.798 3.223c-2.337 2.825-3.608 5.945-5.868 8.77q-9.347 11.658-23.638 23.779c-14.984 12.711-33.216 21.994-51.166 29.313q-10.31 4.211-25.77 8.885-37.389 11.325-71.645 13.495-16.037 1.027-42.474.899l56.597-82.74a.732.745 31.1 0 1 .95-.244q29.904 15.716 63.365 21.892c36.22 6.69 74.047 5.47 97.364-25.371q8.846-11.685 16.178-30.43z" style="stroke-width:1.28398"/><path fill="#019ed6" d="m181.046 489.281 11.941.141q5.226 4.828 8.552 9.206 6.42 8.475 13.186 19.453 8.474 13.725 13.905 28.273l-56.816.41q-69.488.026-139.029-.05c-4.134 0-8.975.076-12.775-1.028C9.083 542.515.789 533.642.185 522.061c-.757-14.188 5.534-26.013 19.427-30.803 4.7-1.63 10.362-1.964 15.37-1.938q73.019.346 146.064-.039z" style="fill:#01c3f6;fill-opacity:1;stroke-width:1.28398"/><path fill="#008bc2" d="m192.987 489.422 71.71-.064a.745.745 0 0 1 .604 1.169q-19.131 27.168-36.67 55.827-5.432-14.548-13.906-28.273-6.767-10.978-13.186-19.453-3.326-4.378-8.552-9.206z" style="stroke-width:1.28398"/><path style="fill:#01c3f6;fill-opacity:1;stroke-width:1.28398" d="M839.83 489.781c-54.279.249-108.548.382-162.81.399-10.939.009-18.699.39-23.278 1.142-33.136 5.462-55.96 23.63-68.475 54.506-.231.574-.038.86.578.86l348.549.064.348-.025c15.621.094 31.255.097 46.902.011 4.674-.025 8.072-.32 10.195-.884 10.786-2.85 18.04-12.019 19.76-23.06 1.746-11.056-3.607-22.483-13.326-28.415-4.75-2.885-10.406-4.358-16.963-4.418a2676.83 2676.83 0 0 0-46.902 0 1289.485 1289.485 0 0 0 0 0zm24.074 1.58zm5.572 1.502c.214.013.375.076.482.19.107.113.16.276.16.49 0-.214-.053-.377-.16-.49-.107-.114-.268-.177-.482-.19zm4.121 1.213zm0 0zm1.979.584c.273-.013.451.043.535.162.083.12.07.306-.035.557v.002c-.06.137-.155.213-.284.23.129-.017.224-.095.284-.232.107-.252.118-.437.035-.557-.084-.12-.262-.175-.535-.162zm2.994 4.979c.07.02.095.209.074.568.021-.36-.004-.549-.074-.568zm0 0c-.07-.02-.187.132-.35.453-.103.205-.098.423.014.654-.111-.23-.117-.449-.014-.654.163-.321.28-.473.35-.453zm4.799 3.215c.27-.035.492.006.667.12.175.115.302.305.383.567-.081-.263-.208-.451-.383-.566-.175-.116-.398-.156-.667-.121zm2.234 2.156a27.676 27.676 0 0 0 0 0zm12.223 9.36a3.91 3.91 0 0 0 0 0zm1.986.728a2.34 2.34 0 0 0 0 0zm14.5 10.635c.32 0 .507.06.558.177.052.118-.031.294-.25.53.219-.236.302-.412.25-.53-.05-.117-.237-.177-.558-.177zm.103 1.708c.13.374.137.61.022.71-.114.099-.347.065-.701-.106.355.171.587.206.7.105.114-.1.108-.336-.02-.709zm10.336 14.02a4.807 4.807 0 0 0 0 0zm5.662 3.107c.095.095.091.184-.011.27.103-.086.106-.175.011-.27z"/></svg>